HIERARCHY
ROOT Hips
{
	OFFSET -131.695496 91.669037 -190.067505
	CHANNELS 6 Xposition Yposition Zposition Zrotation Yrotation Xrotation 
	JOINT LeftUpLeg
	{
		OFFSET 0.103456 1.857829 10.548507
		CHANNELS 3 Zrotation Yrotation Xrotation
		JOINT LeftLeg
		{
			OFFSET 43.500000 -0.000031 0.000008
			CHANNELS 3 Zrotation Yrotation Xrotation
			JOINT LeftFoot
			{
				OFFSET 42.372200 0.000015 -0.000002
				CHANNELS 3 Zrotation Yrotation Xrotation
				JOINT LeftToe
				{
					OFFSET 17.299992 -0.000004 0.000000
					CHANNELS 3 Zrotation Yrotation Xrotation
					End Site
					{
						OFFSET 0.000000 0.000000 0.000000
					}
				}
			}
		}
	}
	JOINT RightUpLeg
	{
		OFFSET 0.103460 1.857824 -10.548508
		CHANNELS 3 Zrotation Yrotation Xrotation
		JOINT RightLeg
		{
			OFFSET 43.500042 -0.000019 0.000004
			CHANNELS 3 Zrotation Yrotation Xrotation
			JOINT RightFoot
			{
				OFFSET 42.372265 -0.000019 0.000016
				CHANNELS 3 Zrotation Yrotation Xrotation
				JOINT RightToe
				{
					OFFSET 17.299999 -0.000001 -0.000006
					CHANNELS 3 Zrotation Yrotation Xrotation
					End Site
					{
						OFFSET 0.000000 0.000000 0.000000
					}
				}
			}
		}
	}
	JOINT Spine
	{
		OFFSET 6.901965 -2.603734 0.000001
		CHANNELS 3 Zrotation Yrotation Xrotation
		JOINT Spine1
		{
			OFFSET 12.588102 0.000006 -0.000006
			CHANNELS 3 Zrotation Yrotation Xrotation
			JOINT Spine2
			{
				OFFSET 12.343201 -0.000002 0.000010
				CHANNELS 3 Zrotation Yrotation Xrotation
				JOINT Neck
				{
					OFFSET 25.832899 -0.000004 -0.000009
					CHANNELS 3 Zrotation Yrotation Xrotation
					JOINT Head
					{
						OFFSET 11.766603 0.000001 0.000007
						CHANNELS 3 Zrotation Yrotation Xrotation
						End Site
						{
							OFFSET 0.000000 0.000000 0.000000
						}
					}
				}
				JOINT LeftShoulder
				{
					OFFSET 19.745899 -1.480371 6.000098
					CHANNELS 3 Zrotation Yrotation Xrotation
					JOINT LeftArm
					{
						OFFSET 11.284129 -0.000011 -0.000015
						CHANNELS 3 Zrotation Yrotation Xrotation
						JOINT LeftForeArm
						{
							OFFSET 33.000046 0.000011 0.000030
							CHANNELS 3 Zrotation Yrotation Xrotation
							JOINT LeftHand
							{
								OFFSET 25.200010 0.000012 -0.000000
								CHANNELS 3 Zrotation Yrotation Xrotation
								End Site
								{
									OFFSET 0.000000 0.000000 0.000000
								}
							}
						}
					}
				}
				JOINT RightShoulder
				{
					OFFSET 19.746092 -1.480375 -6.000075
					CHANNELS 3 Zrotation Yrotation Xrotation
					JOINT RightArm
					{
						OFFSET 11.284135 -0.000010 -0.000014
						CHANNELS 3 Zrotation Yrotation Xrotation
						JOINT RightForeArm
						{
							OFFSET 33.000092 0.000016 0.000013
							CHANNELS 3 Zrotation Yrotation Xrotation
							JOINT RightHand
							{
								OFFSET 25.199780 0.000135 0.000426
								CHANNELS 3 Zrotation Yrotation Xrotation
								End Site
								{
									OFFSET 0.000000 0.000000 0.000000
								}
							}
						}
					}
				}
			}
		}
	}
}
MOTION
Frames: 9
Frame Time: 0.033333
-131.695496 91.669037 -190.067505 92.292706 7.457008 93.867023 -171.948332 -1.481908 -177.540700 -8.527348 -2.174104 -6.575688 73.140316 3.774204 -3.297880 21.454551 0.003082 -0.000000 -170.067640 4.534197 -172.779552 -10.529297 3.308341 10.292560 78.396611 -6.327143 4.202935 21.454558 -0.003101 -0.000014 7.641365 -0.546433 -0.157856 5.271743 -1.096004 -0.340536 4.953578 -1.097889 -0.333916 -0.067036 -9.590691 -5.490982 -21.442488 12.276083 -12.444629 -86.872534 -88.193978 -95.039692 -7.936459 14.788743 -9.195671 -24.889877 -17.318737 1.278167 13.959408 -7.609158 28.758033 -114.140418 81.535916 68.166169 -5.265295 -16.400601 8.956176 -22.380730 16.695050 -1.236139 9.189806 3.384503 -10.094705 
-131.681702 91.671143 -190.077606 92.279776 7.457014 93.817108 -171.935368 -1.478813 -177.556437 -8.501910 -2.177251 -6.596147 73.129210 3.789751 -3.297888 21.454557 0.003100 0.000000 -170.067653 4.542405 -172.802201 -10.507912 3.313871 10.276405 78.374194 -6.316048 4.202939 21.454562 -0.003109 -0.000016 7.630816 -0.546442 -0.162460 5.250682 -1.093543 -0.349586 4.932524 -1.095515 -0.342979 0.180223 -9.652007 -5.498807 -21.478974 12.376079 -12.490703 -85.997949 -88.233640 -95.911845 -7.962355 14.763543 -9.248592 -24.885832 -17.311731 1.278162 13.988918 -7.589950 29.023537 -114.119060 81.589656 68.183893 -5.213356 -16.409984 8.945932 -22.417693 16.645308 -1.233512 9.125041 3.708820 -10.229497 
-131.649597 91.675217 -190.098999 92.247449 7.457010 93.701412 -171.913416 -1.465815 -177.652879 -8.472353 -2.159652 -6.608494 73.117523 3.799884 -3.297881 21.454555 0.003085 0.000001 -170.071587 4.557004 -172.868140 -10.453365 3.326172 10.247074 78.321151 -6.295186 4.202945 21.454560 -0.003103 -0.000016 7.605366 -0.546425 -0.171631 5.199859 -1.084716 -0.367517 4.881706 -1.086765 -0.360952 0.868888 -9.724563 -5.549751 -21.729677 12.462323 -12.572545 -84.330228 -88.337166 -97.571499 -7.977277 14.690922 -9.329243 -24.913651 -17.294018 1.278169 14.079172 -7.497149 29.512513 -113.979963 81.716363 68.314548 -5.106171 -16.427578 8.823691 -22.436152 16.533412 -1.226700 9.066240 4.529830 -10.427418 
-131.619202 91.679047 -190.127594 92.208332 7.457012 93.552063 -171.904045 -1.452195 -177.752121 -8.463497 -2.139182 -6.638396 73.114989 3.819732 -3.300913 21.454551 0.003084 0.000000 -170.100015 4.566688 -172.974390 -10.419534 3.332119 10.221645 78.270198 -6.276385 4.202942 21.454558 -0.003116 -0.000018 7.580041 -0.541878 -0.170847 5.149164 -1.075714 -0.365479 4.831015 -1.077775 -0.358981 1.597651 -9.716103 -5.641946 -22.019592 12.458985 -12.648158 -82.692984 -88.446312 -99.200301 -7.983528 14.594723 -9.285012 -24.902344 -17.278618 1.278166 14.126090 -7.272530 29.762338 -113.904777 81.830331 68.381894 -5.049093 -16.413112 8.668540 -22.364987 16.428734 -1.219078 9.107887 5.379267 -10.182519 
-131.589096 91.682968 -190.165894 92.163561 7.457012 93.365066 -171.906982 -1.435196 -177.866964 -8.467070 -2.114069 -6.681062 73.116157 3.846379 -3.311575 21.454551 0.003090 0.000000 -170.161691 4.578098 -173.105967 -10.415360 3.334636 10.188243 78.224292 -6.252805 4.199569 21.454558 -0.003111 -0.000018 7.556287 -0.536475 -0.162518 5.101561 -1.065357 -0.348377 4.783415 -1.067316 -0.341942 2.271009 -9.689357 -5.768736 -22.197150 12.511015 -12.768771 -81.313505 -88.536737 -100.571530 -7.988938 14.493962 -9.196434 -24.846372 -17.266640 1.278160 14.082504 -6.952075 29.979473 -114.098433 81.965685 68.176899 -5.006135 -16.363199 8.728612 -22.312505 16.312667 -1.211037 9.299567 6.043290 -9.615191 
-131.558304 91.686729 -190.208603 92.116501 7.450616 93.163589 -171.920602 -1.414592 -177.982859 -8.480690 -2.084630 -6.731760 73.120590 3.877233 -3.327212 21.454555 0.003100 -0.000002 -170.241044 4.594604 -173.220933 -10.428449 3.339395 10.135500 78.183912 -6.217948 4.187267 21.454558 -0.003101 -0.000017 7.535499 -0.529399 -0.152143 5.059868 -1.051735 -0.327136 4.741724 -1.053550 -0.320773 2.907527 -9.651167 -5.910897 -22.340656 12.575901 -12.907826 -80.563242 -88.592772 -101.317831 -7.995440 14.394152 -9.074917 -24.753934 -17.276687 1.278165 13.951600 -6.592333 30.235963 -114.410019 82.103102 67.853114 -4.992268 -16.297192 8.985097 -22.299574 16.228572 -1.207987 9.590371 6.295341 -9.062265 
-131.529999 91.689827 -190.250702 92.070206 7.441310 92.972398 -171.943114 -1.396804 -178.082484 -8.503708 -2.057309 -6.785765 73.128254 3.909838 -3.345090 21.454555 0.003100 0.000001 -170.322406 4.617015 -173.241779 -10.451512 3.345869 10.032482 78.151421 -6.152045 4.158029 21.454563 -0.003109 -0.000019 7.520881 -0.520515 -0.145135 5.030541 -1.034313 -0.312602 4.712401 -1.036061 -0.306340 3.332259 -9.559136 -5.969745 -22.396732 12.587204 -12.934606 -80.514980 -88.605066 -101.364235 -7.998745 14.299489 -8.955214 -24.651403 -17.292627 1.278175 13.781242 -6.323137 30.405171 -114.663467 82.204113 67.590425 -5.034156 -16.218853 9.234166 -22.265288 16.233259 -1.206557 9.877824 6.002810 -8.815479 
-131.507004 91.692787 -190.291397 92.025427 7.428712 92.805352 -171.974574 -1.387794 -178.160799 -8.532505 -2.037620 -6.837658 73.136320 3.941365 -3.361991 21.454551 0.003083 -0.000001 -170.396855 4.634301 -173.248732 -10.465191 3.357097 9.935661 78.119476 -6.091628 4.124871 21.454558 -0.003102 -0.000017 7.516842 -0.509707 -0.142572 5.022379 -1.012817 -0.306969 4.704249 -1.014526 -0.300834 3.466296 -9.469201 -5.979438 -22.300493 12.633167 -12.926493 -81.092705 -88.565506 -100.790376 -8.000384 14.220811 -8.944446 -24.602299 -17.287171 1.278163 13.746769 -6.211237 30.414849 -114.701580 82.243059 67.549335 -5.108448 -16.133909 9.339675 -22.249813 16.257227 -1.206402 9.948166 5.822970 -8.820810 
-131.486603 91.696564 -190.333405 91.982943 7.408401 92.661529 -172.018287 -1.384195 -178.225235 -8.561794 -2.023260 -6.884052 73.140500 3.969995 -3.375537 21.454553 0.003099 0.000002 -170.470347 4.639210 -173.348794 -10.461277 3.371218 9.908625 78.079874 -6.076197 4.108238 21.454558 -0.003108 -0.000020 7.521469 -0.497350 -0.142677 5.031604 -0.988114 -0.306659 4.713455 -0.989795 -0.300685 3.383455 -9.361770 -5.974813 -22.143577 12.751661 -12.939136 -81.664365 -88.509307 -100.223307 -7.964696 14.168849 -9.055020 -24.585662 -17.262284 1.278150 13.714940 -6.246748 30.382348 -114.598662 82.245491 67.652703 -5.145697 -16.059460 9.338423 -22.325460 16.268279 -1.207134 9.881738 5.862481 -8.851646 
